<svg width="24" height="24" viewBox="0 0 24 24" fill="none" xmlns="http://www.w3.org/2000/svg">
<mask id="mask0_575_977" style="mask-type:alpha" maskUnits="userSpaceOnUse" x="0" y="0" width="24" height="24">
<rect width="24" height="24" fill="#D9D9D9"/>
</mask>
<g mask="url(#mask0_575_977)">
<path d="M11.5519 15.6H12.504V11.2422H11.5519V15.6ZM11.9996 10.0013C12.1544 10.0013 12.2844 9.94988 12.3897 9.84706C12.4951 9.74424 12.5478 9.61559 12.5478 9.4611C12.5478 9.3027 12.4952 9.17045 12.3899 9.06434C12.2848 8.95836 12.1549 8.90537 12 8.90537C11.842 8.90537 11.7111 8.95836 11.6074 9.06434C11.5037 9.17045 11.4518 9.3027 11.4518 9.4611C11.4518 9.61559 11.5045 9.74424 11.6097 9.84706C11.7148 9.94988 11.8448 10.0013 11.9996 10.0013ZM12.0044 19.2C11.0076 19.2 10.0729 19.0111 9.20033 18.6331C8.32762 18.2552 7.56505 17.7402 6.91263 17.0882C6.26033 16.436 5.74509 15.6735 5.3669 14.8007C4.98884 13.9277 4.7998 12.9924 4.7998 11.9949C4.7998 11.0007 4.98877 10.0662 5.36671 9.19129C5.74465 8.3163 6.25964 7.55474 6.91168 6.90662C7.56385 6.25849 8.32635 5.74533 9.19919 5.36714C10.0722 4.98908 11.0074 4.80005 12.0049 4.80005C12.9992 4.80005 13.9337 4.98902 14.8086 5.36695C15.6836 5.74489 16.4451 6.2578 17.0932 6.90567C17.7414 7.55354 18.2545 8.31542 18.6327 9.19129C19.0108 10.0672 19.1998 11.0019 19.1998 11.9955C19.1998 12.9923 19.0108 13.9269 18.6329 14.7995C18.255 15.6722 17.7421 16.434 17.0942 17.0848C16.4463 17.7357 15.6844 18.2509 14.8086 18.6305C13.9327 19.0102 12.998 19.2 12.0044 19.2ZM12.0061 18.2478C13.7424 18.2478 15.2168 17.6403 16.4291 16.4254C17.6414 15.2105 18.2475 13.7333 18.2475 11.9938C18.2475 10.2575 17.6421 8.7831 16.4314 7.57072C15.2207 6.35847 13.7435 5.75234 11.9998 5.75234C10.2645 5.75234 8.78936 6.35771 7.57446 7.56845C6.35955 8.77919 5.7521 10.2564 5.7521 12C5.7521 13.7354 6.35955 15.2105 7.57446 16.4254C8.78936 17.6403 10.2666 18.2478 12.0061 18.2478Z" fill="#151515"/>
<path d="M11.5519 15.6H12.504V11.2422H11.5519V15.6ZM11.9996 10.0013C12.1544 10.0013 12.2844 9.94988 12.3897 9.84706C12.4951 9.74424 12.5478 9.61559 12.5478 9.4611C12.5478 9.3027 12.4952 9.17045 12.3899 9.06434C12.2848 8.95836 12.1549 8.90537 12 8.90537C11.842 8.90537 11.7111 8.95836 11.6074 9.06434C11.5037 9.17045 11.4518 9.3027 11.4518 9.4611C11.4518 9.61559 11.5045 9.74424 11.6097 9.84706C11.7148 9.94988 11.8448 10.0013 11.9996 10.0013ZM12.0044 19.2C11.0076 19.2 10.0729 19.0111 9.20033 18.6331C8.32762 18.2552 7.56505 17.7402 6.91263 17.0882C6.26033 16.436 5.74509 15.6735 5.3669 14.8007C4.98884 13.9277 4.7998 12.9924 4.7998 11.9949C4.7998 11.0007 4.98877 10.0662 5.36671 9.19129C5.74465 8.3163 6.25964 7.55474 6.91168 6.90662C7.56385 6.25849 8.32635 5.74533 9.19919 5.36714C10.0722 4.98908 11.0074 4.80005 12.0049 4.80005C12.9992 4.80005 13.9337 4.98902 14.8086 5.36695C15.6836 5.74489 16.4451 6.2578 17.0932 6.90567C17.7414 7.55354 18.2545 8.31542 18.6327 9.19129C19.0108 10.0672 19.1998 11.0019 19.1998 11.9955C19.1998 12.9923 19.0108 13.9269 18.6329 14.7995C18.255 15.6722 17.7421 16.434 17.0942 17.0848C16.4463 17.7357 15.6844 18.2509 14.8086 18.6305C13.9327 19.0102 12.998 19.2 12.0044 19.2ZM12.0061 18.2478C13.7424 18.2478 15.2168 17.6403 16.4291 16.4254C17.6414 15.2105 18.2475 13.7333 18.2475 11.9938C18.2475 10.2575 17.6421 8.7831 16.4314 7.57072C15.2207 6.35847 13.7435 5.75234 11.9998 5.75234C10.2645 5.75234 8.78936 6.35771 7.57446 7.56845C6.35955 8.77919 5.7521 10.2564 5.7521 12C5.7521 13.7354 6.35955 15.2105 7.57446 16.4254C8.78936 17.6403 10.2666 18.2478 12.0061 18.2478Z" fill="black" fill-opacity="0.2"/>
<path d="M11.5519 15.6H12.504V11.2422H11.5519V15.6ZM11.9996 10.0013C12.1544 10.0013 12.2844 9.94988 12.3897 9.84706C12.4951 9.74424 12.5478 9.61559 12.5478 9.4611C12.5478 9.3027 12.4952 9.17045 12.3899 9.06434C12.2848 8.95836 12.1549 8.90537 12 8.90537C11.842 8.90537 11.7111 8.95836 11.6074 9.06434C11.5037 9.17045 11.4518 9.3027 11.4518 9.4611C11.4518 9.61559 11.5045 9.74424 11.6097 9.84706C11.7148 9.94988 11.8448 10.0013 11.9996 10.0013ZM12.0044 19.2C11.0076 19.2 10.0729 19.0111 9.20033 18.6331C8.32762 18.2552 7.56505 17.7402 6.91263 17.0882C6.26033 16.436 5.74509 15.6735 5.3669 14.8007C4.98884 13.9277 4.7998 12.9924 4.7998 11.9949C4.7998 11.0007 4.98877 10.0662 5.36671 9.19129C5.74465 8.3163 6.25964 7.55474 6.91168 6.90662C7.56385 6.25849 8.32635 5.74533 9.19919 5.36714C10.0722 4.98908 11.0074 4.80005 12.0049 4.80005C12.9992 4.80005 13.9337 4.98902 14.8086 5.36695C15.6836 5.74489 16.4451 6.2578 17.0932 6.90567C17.7414 7.55354 18.2545 8.31542 18.6327 9.19129C19.0108 10.0672 19.1998 11.0019 19.1998 11.9955C19.1998 12.9923 19.0108 13.9269 18.6329 14.7995C18.255 15.6722 17.7421 16.434 17.0942 17.0848C16.4463 17.7357 15.6844 18.2509 14.8086 18.6305C13.9327 19.0102 12.998 19.2 12.0044 19.2ZM12.0061 18.2478C13.7424 18.2478 15.2168 17.6403 16.4291 16.4254C17.6414 15.2105 18.2475 13.7333 18.2475 11.9938C18.2475 10.2575 17.6421 8.7831 16.4314 7.57072C15.2207 6.35847 13.7435 5.75234 11.9998 5.75234C10.2645 5.75234 8.78936 6.35771 7.57446 7.56845C6.35955 8.77919 5.7521 10.2564 5.7521 12C5.7521 13.7354 6.35955 15.2105 7.57446 16.4254C8.78936 17.6403 10.2666 18.2478 12.0061 18.2478Z" fill="black" fill-opacity="0.2"/>
</g>
</svg>
