<svg width="19" height="21" viewBox="0 0 19 21" fill="none" xmlns="http://www.w3.org/2000/svg">
<path d="M4.45723 18.4199H0.829102V6.7363H4.45723V18.4199ZM2.64121 5.14255C1.48105 5.14255 0.540039 4.18162 0.540039 3.02146C0.540039 2.46419 0.761412 1.92975 1.15546 1.53571C1.5495 1.14166 2.08395 0.920288 2.64121 0.920288C3.19848 0.920288 3.73292 1.14166 4.12696 1.53571C4.52101 1.92975 4.74238 2.46419 4.74238 3.02146C4.74238 4.18162 3.80098 5.14255 2.64121 5.14255ZM18.0361 18.4199H14.4158V12.7324C14.4158 11.3769 14.3885 9.63865 12.5295 9.63865C10.6432 9.63865 10.3541 11.1113 10.3541 12.6347V18.4199H6.72988V6.7363H10.2096V8.33005H10.2604C10.7447 7.41209 11.9279 6.44334 13.6932 6.44334C17.365 6.44334 18.04 8.8613 18.04 12.0019V18.4199H18.0361Z" fill="white"/>
</svg>
