<svg width="18" height="21" viewBox="0 0 18 21" fill="none" xmlns="http://www.w3.org/2000/svg">
<path d="M8.79395 6.42773C6.30957 6.42773 4.30566 8.43164 4.30566 10.916C4.30566 13.4004 6.30957 15.4043 8.79395 15.4043C11.2783 15.4043 13.2822 13.4004 13.2822 10.916C13.2822 8.43164 11.2783 6.42773 8.79395 6.42773ZM8.79395 13.834C7.18848 13.834 5.87598 12.5254 5.87598 10.916C5.87598 9.30664 7.18457 7.99805 8.79395 7.99805C10.4033 7.99805 11.7119 9.30664 11.7119 10.916C11.7119 12.5254 10.3994 13.834 8.79395 13.834ZM14.5127 6.24414C14.5127 6.82617 14.0439 7.29102 13.4658 7.29102C12.8838 7.29102 12.4189 6.82227 12.4189 6.24414C12.4189 5.66602 12.8877 5.19727 13.4658 5.19727C14.0439 5.19727 14.5127 5.66602 14.5127 6.24414ZM17.4854 7.30664C17.4189 5.9043 17.0986 4.66211 16.0713 3.63867C15.0479 2.61523 13.8057 2.29492 12.4033 2.22461C10.958 2.14258 6.62598 2.14258 5.18066 2.22461C3.78223 2.29102 2.54004 2.61133 1.5127 3.63477C0.485352 4.6582 0.168945 5.90039 0.0986328 7.30273C0.0166016 8.74805 0.0166016 13.0801 0.0986328 14.5254C0.165039 15.9277 0.485352 17.1699 1.5127 18.1934C2.54004 19.2168 3.77832 19.5371 5.18066 19.6074C6.62598 19.6895 10.958 19.6895 12.4033 19.6074C13.8057 19.541 15.0479 19.2207 16.0713 18.1934C17.0947 17.1699 17.415 15.9277 17.4854 14.5254C17.5674 13.0801 17.5674 8.75195 17.4854 7.30664ZM15.6182 16.0762C15.3135 16.8418 14.7236 17.4316 13.9541 17.7402C12.8018 18.1973 10.0674 18.0918 8.79395 18.0918C7.52051 18.0918 4.78223 18.1934 3.63379 17.7402C2.86816 17.4355 2.27832 16.8457 1.96973 16.0762C1.5127 14.9238 1.61816 12.1895 1.61816 10.916C1.61816 9.64258 1.5166 6.9043 1.96973 5.75586C2.27441 4.99023 2.86426 4.40039 3.63379 4.0918C4.78613 3.63477 7.52051 3.74023 8.79395 3.74023C10.0674 3.74023 12.8057 3.63867 13.9541 4.0918C14.7197 4.39648 15.3096 4.98633 15.6182 5.75586C16.0752 6.9082 15.9697 9.64258 15.9697 10.916C15.9697 12.1895 16.0752 14.9277 15.6182 16.0762Z" fill="white"/>
</svg>
