<svg id="_24-icon-search" data-name="24-icon-search" xmlns="http://www.w3.org/2000/svg" width="24" height="24" viewBox="0 0 24 24">
  <rect id="Rectangle_516" data-name="Rectangle 516" width="24" height="24" fill="#000000" opacity="0"/>
  <path id="Union_8" data-name="Union 8" d="M-4730.81-433.4A6.963,6.963,0,0,1-4735-432a7.009,7.009,0,0,1-7-7,7.009,7.009,0,0,1,7-7,7.009,7.009,0,0,1,7,7,6.964,6.964,0,0,1-1.4,4.189l2.881,2.881-1.414,1.415ZM-4740-439a5.006,5.006,0,0,0,5,5,5.006,5.006,0,0,0,5-5,5.006,5.006,0,0,0-5-5A5.006,5.006,0,0,0-4740-439Z" transform="translate(4746 450)" fill="#000000"/>
</svg>
