<svg width="25" height="25" viewBox="0 0 25 25" fill="none" xmlns="http://www.w3.org/2000/svg">
<path d="M12.4437 4.43543C12.5752 4.43532 12.7054 4.46115 12.827 4.51144C12.9485 4.56173 13.0589 4.63548 13.1518 4.72848L13.859 5.43462L18.1028 9.67745L16.6885 11.0917L12.4457 6.8479L8.20187 11.0917L6.7876 9.67745L11.0314 5.43462L11.7376 4.72848C11.8305 4.63548 11.9409 4.56173 12.0625 4.51144C12.184 4.46115 12.3142 4.43532 12.4457 4.43543H12.4437Z" fill="#151515"/>
<path d="M18.3738 20.4386H5.37129C5.10602 20.4386 4.85162 20.3332 4.66404 20.1457C4.47647 19.9581 4.37109 19.7037 4.37109 19.4384V15.4376H6.37149V18.4382H18.3738V15.4376H20.3742V19.4384C20.3742 19.7037 20.2689 19.9581 20.0813 20.1457C19.8937 20.3332 19.6393 20.4386 19.374 20.4386H18.3738Z" fill="#151515"/>
<path d="M13.5146 15.5087H11.5142V6.50691C11.5142 6.24164 11.6195 5.98724 11.8071 5.79966C11.9947 5.61209 12.2491 5.50671 12.5144 5.50671H13.5146V15.5087Z" fill="#151515"/>
</svg>
