<svg width="23" height="21" viewBox="0 0 23 21" fill="none" xmlns="http://www.w3.org/2000/svg">
<path d="M21.5109 5.76691C21.2656 4.84309 20.5427 4.11551 19.6248 3.86859C17.9612 3.41992 11.29 3.41992 11.29 3.41992C11.29 3.41992 4.61894 3.41992 2.95523 3.86859C2.03738 4.11555 1.31448 4.84309 1.06913 5.76691C0.623352 7.44141 0.623352 10.9351 0.623352 10.9351C0.623352 10.9351 0.623352 14.4288 1.06913 16.1032C1.31448 17.0271 2.03738 17.7243 2.95523 17.9713C4.61894 18.4199 11.29 18.4199 11.29 18.4199C11.29 18.4199 17.9611 18.4199 19.6248 17.9713C20.5427 17.7243 21.2656 17.0271 21.5109 16.1032C21.9567 14.4288 21.9567 10.9351 21.9567 10.9351C21.9567 10.9351 21.9567 7.44141 21.5109 5.76691ZM9.1082 14.1071V7.76309L14.6839 10.9352L9.1082 14.1071Z" fill="white"/>
</svg>
